/* XPM */
static char *_7ed0589f8f4423dd4e86a894bdf75a3jiB9rF9AH1Z2daN6[] = {
/* columns rows colors chars-per-pixel */
"32 32 2 1 ",
"  c None",
". c #FFAB00",
/* pixels */
"                                ",
"                                ",
"               .                ",
"               ..               ",
"             ......             ",
"           ........             ",
"          .....    ...          ",
"        .....    .......        ",
"      ......   ..... .....      ",
"      .....  .....   .....      ",
"    .  .........   ......  .    ",
"    ...  .....    .....  ...    ",
"    ....   ..  ......   ....    ",
"    ......   ......   ......    ",
"    ........  ....  ........    ",
"    ... .....     .....  ..     ",
"    ...   .....  .....          ",
"    .....   ...  ...            ",
"    ......   ..  ..       ..    ",
"    ...........  ..      ...    ",
"    ...  ......  ..      ...    ",
"    ....  .....  ..     ....    ",
"    .....   ...  ..   ......    ",
"     ......  ..  ..  .....      ",
"       ........  ........       ",
"         ......  ......         ",
"           ....  ....           ",
"            ...  ..             ",
"              .  .              ",
"                                ",
"                                ",
"                                "
};
