/* XPM */
static char *_34ceab04d8d4527f99bfc7468dfb152dcXi4DVGRUGXkTFd[] = {
/* columns rows colors chars-per-pixel */
"128 128 2 1 ",
"  c None",
". c #FFAB00",
/* pixels */
"                                                                                                                                ",
"                                                                                                                                ",
"                                                                                                                                ",
"                                                                                                                                ",
"                                                                                                                                ",
"                                                                                                                                ",
"                                                                                                                                ",
"                                                                                                                                ",
"                                                                                                                                ",
"                                                                                                                                ",
"                                                                                                                                ",
"                                                                                                                                ",
"                                                              ...                                                               ",
"                                                            ......                                                              ",
"                                                           .........                                                            ",
"                                                         ............                                                           ",
"                                                        ................                                                        ",
"                                                     ....................                                                       ",
"                                                    .......................                                                     ",
"                                                  ...........................                                                   ",
"                                                .............................                                                   ",
"                                               .............................    .                                               ",
"                                             .............................     ...                                              ",
"                                           .............................     .......                                            ",
"                                         ......................  ......    ..........                                           ",
"                                        ......................    ...    ..............                                         ",
"                                      ......................            .................                                       ",
"                                     ......................           .....................                                     ",
"                                  ......................             .......................                                    ",
"                                 ......................           ............................                                  ",
"                               ......................            ...............................                                ",
"                             .......................           ...................................                              ",
"                            ......................            .....................................                             ",
"                          ......................           ..................... ....................                           ",
"                        ......................            .....................   ....................                          ",
"                      ......................            ....................        .....................                       ",
"                    ......................             ....................           .....................                     ",
"                    ......................          .....................            ......................                     ",
"                      ......................       .....................           ......................                       ",
"                        ......................   .....................            .....................                         ",
"                         ...........................................           .......................                          ",
"                 ..         ......................................            .....................         ...                 ",
"                 ....        ...................................            ......................         ....                 ",
"                 ......        ................................            .....................         ......                 ",
"                 .......        .............................           .......................         .......                 ",
"                 .........        ..........................           .....................         ..........                 ",
"                 ..........         ......................           ......................         ...........                 ",
"                 ............         ..................            .....................         .............                 ",
"                 ..............         ...............    ...    ......................         ..............                 ",
"                 ................        ............    .............................         ................                 ",
"                 ..................        ........     ............................         ..................                 ",
"                 ...................        .....     ............................         ....................                 ",
"                 .....................        ..    .............................        ......................                 ",
"                 ......................            ............................         .......................                 ",
"                 .........................        ...........................         .........................                 ",
"                 ..........................         .......................         ...........................                 ",
"                 ............................        .....................        .............................                 ",
"                 ..............................        .................         ..............................                 ",
"                 ...............................         .............         ................................                 ",
"                 .................................         .........         .....................   ..........                 ",
"                 ...........  ......................        ......         ......................   .........                   ",
"                 ...........    ......................        ...         .....................     ........                    ",
"                 ...........     ......................                 ......................      ......                      ",
"                 ...........       ......................             ......................        ....                        ",
"                 ...........         .....................          ......................          ..                          ",
"                 ...........           .....................       .....................            .                           ",
"                 ............            ....................     ....................                                          ",
"                 ..............           ....................    ...................                                           ",
"                 ................           ..................    .................                                             ",
"                 .................           .................    ................                                              ",
"                 ...................            ..............    ..............                                                ",
"                 .....................           .............    ............                                                  ",
"                 ......................           ............    ............                               ..                 ",
"                 ........................         ............    ............                             ....                 ",
"                 .........................        ............    ............                           ......                 ",
"                 ............................     ............    ............                          .......                 ",
"                 .............................    ............    ............                        .........                 ",
"                 ...............................   ...........    ............                       ..........                 ",
"                 ................................ ............    ............                      ...........                 ",
"                 ...........   ...............................    ............                      ...........                 ",
"                 ...........    ..............................    ............                      ...........                 ",
"                 ...........      ............................    ............                      ...........                 ",
"                 ...........       ...........................    ............                      ...........                 ",
"                 ...........         .........................    ............                      ...........                 ",
"                 ...........           ......................     ............                      ...........                 ",
"                 ............            ...................      ............                   ..............                 ",
"                 ..............            ...............        ............                  ...............                 ",
"                 ...............            ...............       ............                .................                 ",
"                 ..................           ..............      ............              ...................                 ",
"                 ...................           ..............     ............             ....................                 ",
"                 .....................            ............    ............           ......................                 ",
"                  ......................          ............    ............         .......................                  ",
"                   ......................         ............    ............       .......................                    ",
"                     ......................       ............    ............      ......................                      ",
"                      ......................      ............    ............    .......................                       ",
"                         ......................   ............    ............   ......................                         ",
"                          ......................   ...........    ............ ......................                           ",
"                            ...................... ...........    .................................                             ",
"                             .................................    ...............................                               ",
"                               ...............................    ..............................                                ",
"                                 .............................    ............................                                  ",
"                                   ...........................    ...........................                                   ",
"                                    ..........................    ........................                                      ",
"                                      ........................    .......................                                       ",
"                                        ......................    .....................                                         ",
"                                          ....................    ....................                                          ",
"                                           ...................    ..................                                            ",
"                                             .................    ................                                              ",
"                                               ...............    ..............                                                ",
"                                                ..............    .............                                                 ",
"                                                   ...........    ...........                                                   ",
"                                                    ..........    .........                                                     ",
"                                                      ........    ........                                                      ",
"                                                       .......    .....                                                         ",
"                                                          ....    ....                                                          ",
"                                                           ...    ..                                                            ",
"                                                            .                                                                   ",
"                                                                                                                                ",
"                                                                                                                                ",
"                                                                                                                                ",
"                                                                                                                                ",
"                                                                                                                                ",
"                                                                                                                                ",
"                                                                                                                                ",
"                                                                                                                                ",
"                                                                                                                                ",
"                                                                                                                                ",
"                                                                                                                                "
};
