/* XPM */
static char *fea933ca5a704a99aff2fd9a1a62fdfeKvsqlqUjuGg9juM5[] = {
/* columns rows colors chars-per-pixel */
"64 64 2 1 ",
"  c None",
". c #FFAB00",
/* pixels */
"                                                                ",
"                                                                ",
"                                                                ",
"                                                                ",
"                                                                ",
"                                                                ",
"                               ..                               ",
"                             .....                              ",
"                           .........                            ",
"                          ............                          ",
"                        ..............                          ",
"                      ...............  ..                       ",
"                    ...........  ..  ......                     ",
"                   ...........      .........                   ",
"                 ...........      .............                 ",
"               ...........      ................                ",
"             ...........      ....................              ",
"            ...........     ...........   ..........            ",
"          ...........      ..........      ..........           ",
"           ............  ..........      ...........            ",
"             .....................     ...........    .         ",
"        ...    .................      ...........    ...        ",
"        .....    .............      ...........    .....        ",
"        ......    ..........      ...........    .......        ",
"        ........    .......  ..  ..........     ........        ",
"        ..........    ...   ..............    ..........        ",
"        ...........       ..............    ............        ",
"        .............    .............     .............        ",
"        ...............    .........     ...............        ",
"        .................    ......    .................        ",
"        ......  ..........    ...    ...........  ....          ",
"        ......   ...........        ..........    ..            ",
"        ......     ...........    ...........     .             ",
"        .......      ..........  ..........                     ",
"        .........     .........  ........                       ",
"        ..........      .......  .......                        ",
"        ............     ......  ......               ..        ",
"        ..............   ......  ......             ....        ",
"        ...............  ......  ......            .....        ",
"        ...... ................  ......           ......        ",
"        ......  ...............  ......           ......        ",
"        ......    .............  ......           ......        ",
"        ......      ..........   ......          .......        ",
"        ........      .......    ......         ........        ",
"        ..........     .......   ......       ..........        ",
"        ...........      ......  ......     ...........         ",
"          ...........    ......  ......   ............          ",
"            ...........  ......  ......  ...........            ",
"             ........... ......  .................              ",
"               ................  ...............                ",
"                 ..............  ..............                 ",
"                   ............  ............                   ",
"                    ...........  ..........                     ",
"                      .........  ........                       ",
"                        .......  .......                        ",
"                          .....  .....                          ",
"                           ....  ...                            ",
"                             ..  ..                             ",
"                                                                ",
"                                                                ",
"                                                                ",
"                                                                ",
"                                                                ",
"                                                                "
};
