/* XPM */
static char *cbf9cc1aec284aea8ead40d3c6a70418BVmTWuHihcq7iS6s[] = {
/* columns rows colors chars-per-pixel */
"16 16 2 1 ",
"  c None",
". c #FFAB00",
/* pixels */
"                ",
"       ..       ",
"      ...       ",
"    ...  ..     ",
"   ... .. ...   ",
"  . .... ..  .  ",
"  ..   ... ...  ",
"  .... .. ....  ",
"  ..  .  ..     ",
"  ... ....   .  ",
"  .. .. ..  ..  ",
"  ... .... ...  ",
"    .... ...    ",
"      ....      ",
"                ",
"                "
};
